<svg width="100" height="100" viewBox="0 0 100 100" fill="none" xmlns="http://www.w3.org/2000/svg">
<rect opacity="0.25" width="100" height="100" rx="20.8955" fill="#C7D3FF"/>
<path d="M68.2716 26.8657H30.1397C28.8755 26.8657 27.6631 27.3679 26.7692 28.2618C25.8754 29.1557 25.3732 30.3681 25.3732 31.6322V53.8758C25.3732 55.14 25.8754 56.3524 26.7692 57.2463C27.6631 58.1401 28.8755 58.6423 30.1397 58.6423H48.6865V48.8521C48.6862 47.8489 48.9429 47.3811 49.5306 46.5681C50.1183 45.7551 50.9475 45.1482 51.9001 44.8339L61.145 40.9933C62.1052 40.6802 63.14 40.6802 64.1002 40.9933L71.7712 44.7807L73.0381 45.3756V31.6322C73.0381 30.3681 72.5359 29.1557 71.642 28.2618C70.7481 27.3679 69.5357 26.8657 68.2716 26.8657ZM56.4348 40.2754L51.6683 43.1353C50.9288 43.5777 50.0832 43.8113 49.2215 43.8113C48.3598 43.8113 47.5142 43.5777 46.7747 43.1353L42.0082 40.2754L31.1406 33.7612L32.7295 31.0443L48.3477 40.4184C48.5892 40.5579 48.8632 40.6313 49.1421 40.6313C49.421 40.6313 49.6949 40.5579 49.9365 40.4184L65.5388 31.0443L67.1276 33.7612L56.4348 40.2754Z" fill="#7C8298"/>
<path d="M63.2267 43.5341C62.8675 43.3747 62.4576 43.3747 62.0985 43.5341L51.5725 48.207C51.0701 48.43 50.7463 48.928 50.7463 49.4777V56.5089C50.7463 63.8489 55.8306 70.7128 62.6626 72.3791C69.4945 70.7128 74.5788 63.8489 74.5788 56.5089V49.4777C74.5788 48.928 74.255 48.43 73.7527 48.207L63.2267 43.5341ZM60.5058 63.9533C60.2344 64.2244 59.7947 64.2244 59.5233 63.9533L55.0701 59.5052C54.8759 59.3113 54.8759 58.9966 55.0701 58.8027L56.2351 57.639C56.4287 57.4456 56.7422 57.4453 56.9362 57.6383L59.6636 60.3522C59.8576 60.5451 60.1711 60.5448 60.3647 60.3515L68.3877 52.3376C68.582 52.1435 68.8971 52.144 69.0907 52.3388L70.2575 53.5126C70.4505 53.7067 70.45 54.0204 70.2563 54.2139L60.5058 63.9533Z" fill="white"/>
</svg>
