<svg width="100" height="100" viewBox="0 0 100 100" fill="none" xmlns="http://www.w3.org/2000/svg">
<rect opacity="0.25" width="100" height="100" rx="20.8955" fill="#C7D3FF"/>
<path d="M72.6842 59.1386C72.1453 58.5986 71.4893 58.3289 70.7181 58.3289H58.3697C57.9651 59.4083 57.2853 60.295 56.3311 60.989C55.3764 61.683 54.3115 62.0302 53.1357 62.0302H45.7318C44.5559 62.0302 43.4906 61.6829 42.5365 60.989C41.5821 60.295 40.9027 59.4084 40.4978 58.3289H28.1492C27.3782 58.3289 26.7228 58.5986 26.1828 59.1386C25.6429 59.678 25.373 60.3334 25.373 61.1047V70.3588C25.373 71.1297 25.6429 71.7859 26.1828 72.3249C26.7227 72.8647 27.3781 73.1343 28.1492 73.1343H70.7185C71.4893 73.1343 72.1453 72.8647 72.6845 72.3249C73.2246 71.7852 73.4943 71.1297 73.4943 70.3588V61.1047C73.4943 60.3334 73.2246 59.6787 72.6842 59.1386ZM61.8404 68.8839C61.4736 69.2503 61.0397 69.4337 60.5384 69.4337C60.0371 69.4337 59.6038 69.2503 59.2371 68.8839C58.871 68.518 58.688 68.0839 58.688 67.5826C58.688 67.0813 58.871 66.6471 59.2371 66.2813C59.6038 65.9154 60.0371 65.7315 60.5384 65.7315C61.0397 65.7315 61.4735 65.9153 61.8404 66.2813C62.2064 66.647 62.3895 67.0813 62.3895 67.5826C62.3895 68.0839 62.2064 68.5179 61.8404 68.8839ZM69.2432 68.8839C68.8771 69.2503 68.4432 69.4337 67.9418 69.4337C67.4406 69.4337 67.007 69.2503 66.6405 68.8839C66.2745 68.518 66.0915 68.0839 66.0915 67.5826C66.0915 67.0813 66.2745 66.6471 66.6405 66.2813C67.0069 65.9154 67.4405 65.7315 67.9418 65.7315C68.4431 65.7315 68.877 65.9153 69.2432 66.2813C69.6095 66.647 69.7929 67.0813 69.7929 67.5826C69.7929 68.0839 69.6098 68.5179 69.2432 68.8839Z" fill="#7C8298"/>
<path d="M36.4787 43.524H43.8819V56.4801C43.8819 56.9813 44.0652 57.4152 44.4313 57.7814C44.7977 58.1473 45.2315 58.3311 45.7326 58.3311H53.1366C53.6378 58.3311 54.0712 58.1474 54.4379 57.7814C54.804 57.4153 54.987 56.9814 54.987 56.4801V43.524H62.3905C63.2005 43.524 63.7693 43.1382 64.0966 42.3672C64.4245 41.6155 64.2893 40.9502 63.6917 40.3717L50.7357 27.4158C50.3884 27.0494 49.9551 26.8662 49.4344 26.8662C48.9142 26.8662 48.4803 27.0494 48.1331 27.4158L35.1775 40.3717C34.5797 40.9502 34.4448 41.615 34.7724 42.3672C35.1005 43.1386 35.6691 43.524 36.4787 43.524Z" fill="white"/>
</svg>
