<svg width="100" height="100" viewBox="0 0 100 100" fill="none" xmlns="http://www.w3.org/2000/svg">
<rect opacity="0.25" width="100" height="100" rx="20.8955" fill="#C7D3FF"/>
<path d="M72.6843 59.1381C72.1453 58.5981 71.4894 58.3284 70.7181 58.3284H54.7309C54.3263 59.4078 53.6465 60.2945 52.6923 60.9885C51.7376 61.6825 50.6727 62.0298 49.4969 62.0298C48.3211 62.0298 47.2558 61.6824 46.3017 60.9885C45.3472 60.2945 44.6679 59.4079 44.263 58.3284H28.1493C27.3783 58.3284 26.7228 58.5981 26.1828 59.1381C25.6429 59.6775 25.3731 60.3329 25.3731 61.1043V70.3583C25.3731 71.1292 25.6429 71.7854 26.1828 72.3244C26.7227 72.8642 27.3782 73.1338 28.1493 73.1338H70.7185C71.4894 73.1338 72.1453 72.8642 72.6846 72.3244C73.2247 71.7847 73.4943 71.1292 73.4943 70.3583V61.1043C73.4943 60.3329 73.2247 59.6782 72.6843 59.1381ZM61.8405 68.8834C61.4737 69.2498 61.0397 69.4333 60.5385 69.4333C60.0372 69.4333 59.6038 69.2498 59.2372 68.8834C58.8711 68.5175 58.6881 68.0834 58.6881 67.5822C58.6881 67.0809 58.8711 66.6466 59.2372 66.2809C59.6038 65.9149 60.0372 65.731 60.5385 65.731C61.0397 65.731 61.4736 65.9148 61.8405 66.2809C62.2064 66.6465 62.3896 67.0809 62.3896 67.5822C62.3896 68.0834 62.2064 68.5174 61.8405 68.8834ZM69.2432 68.8834C68.8772 69.2498 68.4432 69.4333 67.9418 69.4333C67.4406 69.4333 67.007 69.2498 66.6405 68.8834C66.2746 68.5175 66.0915 68.0834 66.0915 67.5822C66.0915 67.0809 66.2746 66.6466 66.6405 66.2809C67.0069 65.9149 67.4405 65.731 67.9418 65.731C68.4431 65.731 68.8771 65.9148 69.2432 66.2809C69.6096 66.6465 69.7929 67.0809 69.7929 67.5822C69.7929 68.0834 69.6099 68.5174 69.2432 68.8834Z" fill="#7C8298"/>
<path d="M62.3906 41.6735H54.9873V28.7174C54.9873 28.2162 54.8041 27.7823 54.4379 27.4161C54.0716 27.0502 53.6377 26.8664 53.1366 26.8664L45.7327 26.8664C45.2315 26.8664 44.798 27.0501 44.4314 27.4161C44.0653 27.7822 43.8823 28.2161 43.8823 28.7174V41.6735H36.4788C35.6688 41.6735 35.0999 42.0593 34.7727 42.8303C34.4448 43.5821 34.58 44.2473 35.1775 44.8258L48.1336 57.7817C48.4809 58.1481 48.9141 58.3313 49.4349 58.3313C49.9551 58.3313 50.3889 58.1481 50.7361 57.7817L63.6918 44.8258C64.2896 44.2473 64.4244 43.5825 64.0969 42.8303C63.7688 42.0589 63.2001 41.6735 62.3906 41.6735Z" fill="white"/>
</svg>
