<svg width="150" height="40" viewBox="0 0 150 40" fill="none" xmlns="http://www.w3.org/2000/svg">
<path d="M14 12L11.1606 12C6.8372 12 3.93288 16.4342 5.66046 20.3975L10.5 31.5C14.5 26 16 18 14 12Z" fill="#73AFFF"/>
<path d="M11 33.7861L22.7368 11.7124C25.5889 6.34842 32.2494 4.3121 37.6134 7.16421L25.8766 29.2379C23.0245 34.6019 16.364 36.6382 11 33.7861Z" fill="#338BFF"/>
<path d="M60.236 14.168H63.4L57.548 28.056H54.384L48.504 14.168H51.696L53.544 18.62L55.98 25.032L58.164 19.18L60.236 14.168ZM79.2432 22.176H68.0432C68.1552 23.24 68.6312 24.08 69.4432 24.696C70.2552 25.34 71.2912 25.648 72.5512 25.648C73.2792 25.648 74.0352 25.536 74.7912 25.256C75.5472 24.976 76.1352 24.612 76.5552 24.164L78.4312 25.984C77.7312 26.74 76.8352 27.328 75.7712 27.72C74.7072 28.14 73.6152 28.336 72.4952 28.336C70.2272 28.336 68.4072 27.692 67.0632 26.348C65.7192 25.032 65.0472 23.268 65.0472 21.028C65.0472 18.928 65.7192 17.192 67.0632 15.848C68.4072 14.504 70.1432 13.832 72.2992 13.832C74.5952 13.832 76.4152 14.56 77.7032 15.96C78.9912 17.388 79.4952 19.46 79.2432 22.176ZM68.0992 19.74H76.4712C76.3872 18.676 75.9672 17.864 75.2392 17.276C74.5112 16.716 73.5592 16.408 72.3832 16.408C71.2912 16.408 70.3672 16.716 69.5832 17.276C68.7992 17.864 68.3232 18.676 68.0992 19.74ZM82.7441 14.196H85.4321L85.6281 16.016C86.4121 14.616 87.7841 13.888 89.6881 13.888C91.0881 13.888 92.2081 14.28 93.1041 15.064L91.7881 17.584C91.0881 17.024 90.2761 16.744 89.3521 16.744C88.2881 16.744 87.3921 17.08 86.6921 17.724C85.9641 18.396 85.6281 19.32 85.6281 20.524V28H82.7441V14.196ZM98.5201 14.14V28H95.6361V14.14H98.5201ZM95.3001 10.136C95.3001 10.892 95.5801 11.424 96.1961 11.732C96.7841 12.04 97.3721 12.04 97.9881 11.732C98.5761 11.424 98.8841 10.892 98.8841 10.136C98.8841 9.408 98.5761 8.876 97.9881 8.568C97.3721 8.288 96.7841 8.288 96.1961 8.568C95.5801 8.876 95.3001 9.408 95.3001 10.136ZM107.373 28H104.461V16.912H101.829V14.364H104.461V13.356C104.461 11.704 104.909 10.416 105.833 9.492C106.757 8.596 107.961 8.12 109.445 8.12C110.621 8.12 111.741 8.484 112.833 9.212L111.713 11.368C110.957 10.892 110.257 10.64 109.613 10.64C108.913 10.64 108.353 10.892 107.961 11.34C107.569 11.788 107.373 12.46 107.373 13.356V14.364H111.545V16.912H107.373V28ZM117.359 14.14V28H114.475V14.14H117.359ZM114.139 10.136C114.139 10.892 114.419 11.424 115.035 11.732C115.623 12.04 116.211 12.04 116.827 11.732C117.415 11.424 117.723 10.892 117.723 10.136C117.723 9.408 117.415 8.876 116.827 8.568C116.211 8.288 115.623 8.288 115.035 8.568C114.419 8.876 114.139 9.408 114.139 10.136ZM135.199 22.176H123.999C124.111 23.24 124.587 24.08 125.399 24.696C126.211 25.34 127.247 25.648 128.507 25.648C129.235 25.648 129.991 25.536 130.747 25.256C131.503 24.976 132.091 24.612 132.511 24.164L134.387 25.984C133.687 26.74 132.791 27.328 131.727 27.72C130.663 28.14 129.571 28.336 128.451 28.336C126.183 28.336 124.363 27.692 123.019 26.348C121.675 25.032 121.003 23.268 121.003 21.028C121.003 18.928 121.675 17.192 123.019 15.848C124.363 14.504 126.099 13.832 128.255 13.832C130.551 13.832 132.371 14.56 133.659 15.96C134.947 17.388 135.451 19.46 135.199 22.176ZM124.055 19.74H132.427C132.343 18.676 131.923 17.864 131.195 17.276C130.467 16.716 129.515 16.408 128.339 16.408C127.247 16.408 126.323 16.716 125.539 17.276C124.755 17.864 124.279 18.676 124.055 19.74ZM138.7 14.196H141.388L141.584 16.016C142.368 14.616 143.74 13.888 145.644 13.888C147.044 13.888 148.164 14.28 149.06 15.064L147.744 17.584C147.044 17.024 146.232 16.744 145.308 16.744C144.244 16.744 143.348 17.08 142.648 17.724C141.92 18.396 141.584 19.32 141.584 20.524V28H138.7V14.196Z" fill="white"/>
</svg>
